<svg width="13" height="12" viewBox="0 0 13 12" fill="none" xmlns="http://www.w3.org/2000/svg">
<path d="M12.8202 4.52553C12.7948 4.44787 12.7277 4.39123 12.6468 4.37944L8.76602 3.81544L7.03049 0.298906C6.99445 0.225537 6.91979 0.179199 6.83827 0.179199C6.75675 0.179199 6.68188 0.225537 6.64605 0.298906L4.91031 3.81566L1.02951 4.37965C0.948629 4.39145 0.881697 4.44787 0.856168 4.52574C0.831068 4.60319 0.851878 4.68857 0.910444 4.74542L3.71882 7.48279L3.05572 11.3482C3.04199 11.4286 3.07503 11.5099 3.14089 11.558C3.20718 11.6064 3.29492 11.6127 3.36678 11.5743L6.83827 9.74949L10.3093 11.5743C10.3406 11.5908 10.3752 11.5989 10.4093 11.5989C10.4537 11.5989 10.4979 11.5852 10.5354 11.558C10.6015 11.5099 10.6346 11.4286 10.6206 11.3482L9.95772 7.48301L12.7661 4.74542C12.8244 4.68814 12.8455 4.60297 12.8202 4.52553Z" fill="#FED058"/>
</svg>
